<?xml version="1.0" standalone="no"?>
<!DOCTYPE svg PUBLIC "-//W3C//DTD SVG 20010904//EN"
 "http://www.w3.org/TR/2001/REC-SVG-20010904/DTD/svg10.dtd">
<svg version="1.0" xmlns="http://www.w3.org/2000/svg"
 width="16.000000pt" height="16.000000pt" viewBox="0 0 16.000000 16.000000"
 preserveAspectRatio="xMidYMid meet">
<metadata>
Created by potrace 1.11, written by Peter Selinger 2001-2013
</metadata>
<g transform="translate(0.000000,16.000000) scale(0.003125,-0.003125)"
fill="#000000" stroke="none">
<path d="M2505 5084 c-142 -27 -175 -41 -380 -161 -66 -39 -210 -122 -320
-185 -110 -64 -214 -124 -232 -134 -17 -11 -80 -47 -140 -81 -59 -35 -126 -73
-148 -86 -22 -13 -60 -35 -85 -49 -25 -14 -70 -40 -100 -58 -63 -38 -116 -68
-145 -84 -11 -6 -110 -63 -220 -126 -243 -140 -310 -199 -374 -332 -22 -46
-44 -110 -50 -142 -7 -40 -11 -402 -11 -1090 0 -1132 -2 -1094 61 -1219 67
-133 132 -194 321 -300 24 -13 259 -149 523 -302 264 -152 586 -338 715 -413
129 -74 272 -157 318 -184 132 -77 186 -92 327 -91 180 0 80 -48 1060 518 303
175 636 367 740 427 105 60 213 127 241 148 67 51 134 140 175 237 l34 78 3
1088 2 1087 -26 77 c-45 135 -123 240 -229 308 -27 18 -142 86 -255 151 -113
65 -272 157 -355 204 -82 48 -240 139 -350 202 -110 64 -216 125 -235 136 -53
30 -138 79 -315 182 -249 144 -276 158 -340 175 -60 15 -174 26 -210 19z m245
-1097 c73 -27 120 -74 120 -120 0 -28 -8 -42 -39 -70 -60 -54 -125 -72 -266
-72 -116 0 -123 1 -188 33 -74 37 -100 67 -99 114 3 116 285 185 472 115z
m-1898 -390 c172 -101 592 -347 933 -547 341 -200 643 -372 670 -382 62 -22
150 -23 210 -3 25 9 235 126 467 262 233 135 578 335 768 446 190 110 365 212
390 227 187 113 313 181 325 176 52 -20 21 -40 -937 -596 -524 -304 -964 -562
-977 -572 -40 -30 -78 -90 -95 -147 -14 -49 -16 -172 -16 -1137 0 -949 -2
-1083 -15 -1094 -12 -10 -18 -10 -30 0 -13 11 -15 147 -15 1109 0 1242 5 1157
-80 1241 -31 31 -180 123 -465 290 -231 134 -467 272 -525 306 -58 34 -265
155 -460 269 -507 296 -490 285 -490 304 0 19 8 31 21 31 4 0 148 -83 321
-183z m3534 -428 c118 -73 151 -340 60 -492 -58 -97 -140 -113 -211 -40 -55
56 -78 130 -79 248 -1 146 39 245 117 288 42 22 72 22 113 -4z m-3559 -8 c23
-2 75 -55 98 -102 97 -191 15 -489 -134 -489 -73 0 -131 63 -165 179 -55 187
47 436 169 416 11 -2 25 -4 32 -4z m2410 -716 c112 -73 146 -316 65 -475 -83
-165 -233 -121 -288 85 -62 229 82 480 223 390z m1150 -505 c131 -79 150 -408
31 -529 -65 -67 -125 -66 -185 3 -173 196 -41 645 154 526z m-2361 -725 c68
-44 109 -166 102 -302 -5 -80 -10 -102 -39 -160 -38 -76 -68 -102 -125 -110
-57 -7 -101 26 -143 108 -59 118 -54 289 12 400 50 85 124 109 193 64z m1240
-29 c54 -59 78 -135 78 -246 0 -134 -40 -234 -111 -282 -143 -94 -285 181
-213 413 51 166 155 215 246 115z"/>
</g>
</svg>
